<!DOCTYPE svg PUBLIC "-//W3C//DTD SVG 1.1//EN" "http://www.w3.org/Graphics/SVG/1.1/DTD/svg11.dtd">
<!-- Uploaded to: SVG Repo, www.svgrepo.com, Transformed by: SVG Repo Mixer Tools -->
<svg width="800px" height="800px" viewBox="-2.2 -2.2 24.40 24.40" xmlns="http://www.w3.org/2000/svg" fill="none" stroke="#c0a41b" stroke-width="0.48" transform="matrix(1, 0, 0, 1, 0, 0)rotate(0)">
<g id="SVGRepo_bgCarrier" stroke-width="0">
<path transform="translate(-2.2, -2.2), scale(1.525)" fill="#196a86" d="M9.166.33a2.25 2.25 0 00-2.332 0l-5.25 3.182A2.25 2.25 0 00.5 5.436v5.128a2.25 2.25 0 001.084 1.924l5.25 3.182a2.25 2.25 0 002.332 0l5.25-3.182a2.25 2.25 0 001.084-1.924V5.436a2.25 2.25 0 00-1.084-1.924L9.166.33z" strokewidth="0"/>
</g>
<g id="SVGRepo_tracerCarrier" stroke-linecap="round" stroke-linejoin="round"/>
<g id="SVGRepo_iconCarrier"> <path fill="#000000" fill-rule="evenodd" d="M18 5a1 1 0 100-2H2a1 1 0 000 2h16zm-4 4a1 1 0 100-2H6a1 1 0 100 2h8zm5 3a1 1 0 01-1 1H2a1 1 0 110-2h16a1 1 0 011 1zm-5 5a1 1 0 100-2H6a1 1 0 100 2h8z"/> </g>
</svg>